<svg aria-hidden="true" style="position: absolute; width: 0; height: 0; overflow: hidden;" version="1.1" xmlns="http://www.w3.org/2000/svg" xmlns:xlink="http://www.w3.org/1999/xlink">
<defs>
<symbol id="icon-arrow" viewBox="0 0 38 32">
<path fill="#fff" style="fill: var(--color1, #fff)" d="M0 16c0-0.606 0.253-1.187 0.703-1.616s1.060-0.669 1.697-0.669h27.803l-10.304-9.809c-0.451-0.429-0.704-1.011-0.704-1.618s0.253-1.189 0.704-1.618c0.451-0.429 1.062-0.67 1.699-0.67s1.248 0.241 1.699 0.67l14.398 13.712c0.223 0.212 0.401 0.464 0.522 0.742s0.183 0.575 0.183 0.876-0.062 0.598-0.183 0.876c-0.121 0.278-0.298 0.53-0.522 0.742l-14.398 13.712c-0.451 0.429-1.062 0.67-1.699 0.67s-1.248-0.241-1.699-0.67c-0.451-0.429-0.704-1.011-0.704-1.618s0.253-1.189 0.704-1.618l10.304-9.808h-27.803c-0.636 0-1.247-0.241-1.697-0.669s-0.703-1.010-0.703-1.616z"></path>
</symbol>
<symbol id="icon-grey-selector" viewBox="0 0 56 32">
<path fill="#737373" style="fill: var(--color2, #737373)" d="M7.969-0.002l20 20 20-20 8 4-28 28-28-28 8-4z"></path>
</symbol>
<symbol id="icon-twitter" viewBox="0 0 41 32">
<path fill="#23a6f0" style="fill: var(--color3, #23a6f0)" d="M13.175 32c14.76 0 22.834-12.315 22.834-22.975 0-0.345 0-0.694-0.015-1.039 1.572-1.146 2.929-2.564 4.006-4.189-1.468 0.652-3.024 1.082-4.618 1.275 1.678-1.010 2.935-2.599 3.537-4.472-1.577 0.941-3.303 1.601-5.102 1.952-1.209-1.297-2.81-2.156-4.554-2.445s-3.533 0.010-5.091 0.85c-1.558 0.839-2.798 2.173-3.527 3.793s-0.908 3.438-0.507 5.171c-3.191-0.161-6.312-0.996-9.162-2.45s-5.364-3.495-7.38-5.99c-1.023 1.78-1.336 3.885-0.874 5.888s1.664 3.754 3.362 4.898c-1.272-0.044-2.517-0.388-3.632-1.004v0.111c0.002 1.864 0.644 3.671 1.816 5.114s2.803 2.435 4.618 2.807c-0.689 0.191-1.4 0.286-2.114 0.283-0.504 0.002-1.006-0.045-1.501-0.14 0.513 1.605 1.511 3.008 2.856 4.013s2.967 1.561 4.641 1.591c-2.844 2.249-6.357 3.469-9.973 3.463-0.637 0.003-1.274-0.034-1.907-0.111 3.67 2.356 7.933 3.607 12.286 3.606z"></path>
</symbol>
<symbol id="icon-instagram" viewBox="0 0 33 32">
<path fill="#23a6f0" style="fill: var(--color3, #23a6f0)" d="M16.727 0c-4.342 0-4.888 0.020-6.594 0.096-1.706 0.080-2.868 0.348-3.886 0.744-1.068 0.402-2.035 1.032-2.834 1.846-0.814 0.799-1.444 1.766-1.846 2.834-0.396 1.016-0.666 2.18-0.744 3.88-0.076 1.71-0.096 2.254-0.096 6.602 0 4.344 0.020 4.888 0.096 6.594 0.080 1.704 0.348 2.866 0.744 3.884 0.41 1.052 0.956 1.944 1.846 2.834 0.888 0.89 1.78 1.438 2.832 1.846 1.020 0.396 2.18 0.666 3.884 0.744 1.708 0.076 2.252 0.096 6.598 0.096s4.888-0.020 6.596-0.096c1.702-0.080 2.868-0.348 3.886-0.744 1.067-0.402 2.034-1.032 2.832-1.846 0.89-0.89 1.436-1.782 1.846-2.834 0.394-1.018 0.664-2.18 0.744-3.884 0.076-1.706 0.096-2.25 0.096-6.596s-0.020-4.89-0.096-6.598c-0.080-1.702-0.35-2.866-0.744-3.882-0.402-1.068-1.032-2.035-1.846-2.834-0.799-0.815-1.766-1.445-2.834-1.846-1.020-0.396-2.184-0.666-3.886-0.744-1.708-0.076-2.25-0.096-6.598-0.096h0.004zM15.293 2.884h1.436c4.272 0 4.778 0.014 6.464 0.092 1.56 0.070 2.408 0.332 2.972 0.55 0.746 0.29 1.28 0.638 1.84 1.198s0.906 1.092 1.196 1.84c0.22 0.562 0.48 1.41 0.55 2.97 0.078 1.686 0.094 2.192 0.094 6.462s-0.016 4.778-0.094 6.464c-0.070 1.56-0.332 2.406-0.55 2.97-0.257 0.695-0.666 1.323-1.198 1.838-0.56 0.56-1.092 0.906-1.84 1.196-0.56 0.22-1.408 0.48-2.97 0.552-1.686 0.076-2.192 0.094-6.464 0.094s-4.78-0.018-6.466-0.094c-1.56-0.072-2.406-0.332-2.97-0.552-0.695-0.256-1.324-0.665-1.84-1.196-0.532-0.516-0.943-1.145-1.2-1.84-0.218-0.562-0.48-1.41-0.55-2.97-0.076-1.686-0.092-2.192-0.092-6.466 0-4.272 0.016-4.776 0.092-6.462 0.072-1.56 0.332-2.408 0.552-2.972 0.29-0.746 0.638-1.28 1.198-1.84s1.092-0.906 1.84-1.196c0.564-0.22 1.41-0.48 2.97-0.552 1.476-0.068 2.048-0.088 5.030-0.090v0.004zM25.269 5.54c-0.252 0-0.502 0.050-0.735 0.146s-0.445 0.238-0.623 0.416c-0.178 0.178-0.32 0.39-0.416 0.623s-0.146 0.483-0.146 0.735c0 0.252 0.050 0.502 0.146 0.735s0.238 0.445 0.416 0.623c0.178 0.178 0.39 0.32 0.623 0.416s0.483 0.146 0.735 0.146c0.509 0 0.998-0.202 1.358-0.562s0.562-0.848 0.562-1.358-0.202-0.998-0.562-1.358c-0.36-0.36-0.848-0.562-1.358-0.562zM16.729 7.784c-1.090-0.017-2.172 0.183-3.184 0.588s-1.933 1.008-2.71 1.773-1.394 1.676-1.815 2.682c-0.421 1.005-0.638 2.084-0.638 3.174s0.217 2.169 0.638 3.174c0.421 1.005 1.038 1.917 1.815 2.682s1.698 1.367 2.71 1.773c1.012 0.405 2.094 0.605 3.184 0.588 2.157-0.034 4.214-0.914 5.728-2.451s2.362-3.608 2.362-5.766-0.848-4.228-2.362-5.765c-1.513-1.537-3.571-2.418-5.728-2.451zM16.729 10.666c1.415 0 2.771 0.562 3.772 1.562s1.562 2.357 1.562 3.772c0 1.415-0.562 2.771-1.562 3.772s-2.357 1.562-3.772 1.562-2.771-0.562-3.772-1.562c-1-1-1.562-2.357-1.562-3.772s0.562-2.771 1.562-3.772c1-1 2.357-1.562 3.772-1.562z"></path>
</symbol>
<symbol id="icon-facebook" viewBox="0 0 33 32">
<path fill="#23a6f0" style="fill: var(--color3, #23a6f0)" d="M32.696 16.098c0-8.891-7.163-16.098-15.998-16.098-8.839 0.002-16.002 7.207-16.002 16.1 0 8.033 5.851 14.692 13.498 15.9v-11.249h-4.059v-4.651h4.064v-3.55c0-4.034 2.39-6.261 6.043-6.261 1.752 0 3.581 0.314 3.581 0.314v3.96h-2.018c-1.986 0-2.606 1.242-2.606 2.516v3.020h4.435l-0.708 4.651h-3.73v11.249c7.647-1.208 13.498-7.867 13.498-15.9z"></path>
</symbol>
<symbol id="icon-check-mark" viewBox="0 0 47 32">
<path fill="#fff" style="fill: var(--color1, #fff)" d="M45.951 0.594c0.188 0.188 0.338 0.411 0.44 0.657s0.154 0.509 0.154 0.776c0 0.266-0.052 0.53-0.154 0.776s-0.252 0.469-0.44 0.657l-28.328 28.328c-0.188 0.189-0.411 0.338-0.657 0.44s-0.509 0.154-0.776 0.154-0.53-0.052-0.776-0.154c-0.246-0.102-0.469-0.251-0.657-0.44l-14.164-14.164c-0.38-0.38-0.593-0.895-0.593-1.433s0.213-1.053 0.593-1.433c0.38-0.38 0.895-0.593 1.433-0.593s1.053 0.213 1.433 0.593l12.732 12.736 26.896-26.9c0.188-0.188 0.411-0.338 0.657-0.44s0.509-0.155 0.776-0.155c0.266 0 0.53 0.052 0.776 0.155s0.469 0.252 0.657 0.44v0z"></path>
</symbol>
<symbol id="icon-blue-selector" viewBox="0 0 18 32">
<path fill="#23a6f0" style="fill: var(--color3, #23a6f0)" d="M0.362 0.362c0.114-0.115 0.25-0.206 0.4-0.268s0.31-0.094 0.472-0.094c0.162 0 0.322 0.032 0.472 0.094s0.285 0.153 0.4 0.268l14.767 14.768c0.115 0.114 0.206 0.25 0.268 0.4s0.094 0.31 0.094 0.472c0 0.162-0.032 0.322-0.094 0.472s-0.153 0.285-0.268 0.4l-14.768 14.768c-0.231 0.231-0.544 0.361-0.871 0.361s-0.64-0.13-0.871-0.361c-0.231-0.231-0.361-0.545-0.361-0.871s0.13-0.64 0.361-0.871l13.899-13.896-13.899-13.896c-0.115-0.114-0.206-0.25-0.268-0.4s-0.094-0.31-0.094-0.472c0-0.162 0.032-0.322 0.094-0.472s0.153-0.285 0.268-0.4z"></path>
</symbol>
<symbol id="icon-empty-star" viewBox="0 0 30 32">
<path fill="#f3cd03" style="fill: var(--color4, #f3cd03)" d="M7.251 19.42l-2.187 9.469c-0.068 0.287-0.047 0.587 0.058 0.862s0.292 0.512 0.534 0.679c0.242 0.168 0.53 0.258 0.824 0.26s0.583-0.085 0.827-0.25l7.991-5.327 7.991 5.327c0.25 0.166 0.545 0.251 0.845 0.245s0.591-0.105 0.833-0.282c0.242-0.177 0.425-0.424 0.523-0.707s0.107-0.59 0.025-0.879l-2.684-9.392 6.657-5.991c0.213-0.192 0.365-0.442 0.438-0.72s0.062-0.57-0.030-0.842-0.262-0.51-0.488-0.687c-0.226-0.176-0.5-0.282-0.785-0.305l-8.367-0.666-3.62-8.014c-0.116-0.258-0.303-0.477-0.54-0.631s-0.514-0.236-0.797-0.236-0.559 0.082-0.797 0.236c-0.237 0.154-0.425 0.373-0.54 0.631l-3.62 8.014-8.367 0.665c-0.281 0.022-0.55 0.125-0.774 0.296s-0.394 0.403-0.49 0.668c-0.096 0.265-0.113 0.552-0.050 0.827s0.204 0.526 0.406 0.722l6.184 6.027zM11.438 13.072c0.262-0.021 0.514-0.111 0.728-0.263s0.385-0.358 0.493-0.597l2.64-5.842 2.64 5.842c0.108 0.24 0.278 0.446 0.493 0.597s0.466 0.242 0.728 0.263l5.829 0.462-4.8 4.321c-0.417 0.376-0.583 0.954-0.43 1.494l1.839 6.435-5.483-3.656c-0.241-0.162-0.524-0.248-0.814-0.248s-0.573 0.086-0.814 0.248l-5.729 3.82 1.541-6.672c0.056-0.245 0.049-0.501-0.022-0.743s-0.203-0.461-0.383-0.637l-4.458-4.347 6.002-0.478z"></path>
</symbol>
<symbol id="icon-filled-star" viewBox="0 0 30 32">
<path fill="#f3cd03" style="fill: var(--color4, #f3cd03)" d="M29.809 11.871c-0.092-0.272-0.262-0.51-0.488-0.687s-0.5-0.282-0.785-0.305l-8.367-0.665-3.62-8.014c-0.115-0.258-0.303-0.477-0.54-0.631s-0.514-0.236-0.796-0.236c-0.283-0-0.559 0.081-0.797 0.235s-0.425 0.373-0.541 0.631l-3.62 8.016-8.367 0.665c-0.281 0.022-0.55 0.125-0.774 0.296s-0.394 0.403-0.49 0.668c-0.096 0.265-0.113 0.552-0.050 0.827s0.204 0.526 0.406 0.722l6.183 6.027-2.187 9.469c-0.066 0.287-0.045 0.587 0.061 0.861s0.292 0.511 0.534 0.678c0.242 0.167 0.529 0.258 0.823 0.26s0.582-0.084 0.827-0.248l7.991-5.327 7.991 5.327c0.25 0.166 0.545 0.252 0.845 0.245s0.591-0.105 0.833-0.282c0.243-0.177 0.425-0.424 0.523-0.707s0.107-0.59 0.025-0.879l-2.684-9.392 6.657-5.991c0.436-0.393 0.596-1.007 0.408-1.563z"></path>
</symbol>
<symbol id="icon-people" viewBox="0 0 38 32">
<path fill="#23a6f0" style="fill: var(--color3, #23a6f0)" d="M36.733 30.933c0 0 2.467 0 2.467-2.489s-2.467-9.956-12.333-9.956c-9.867 0-12.333 7.467-12.333 9.956s2.467 2.489 2.467 2.489h19.733zM17.054 28.444h19.625c0.012-0.001 0.023-0.003 0.035-0.005l0.020-0.005c-0.005-0.657-0.412-2.564-1.875-4.281-1.362-1.61-3.754-3.176-7.992-3.176-4.235 0-6.628 1.568-7.992 3.176-1.463 1.717-1.872 3.626-1.875 4.281 0.018 0.004 0.036 0.007 0.054 0.010zM26.867 13.511c1.308 0 2.563-0.524 3.488-1.458s1.445-2.2 1.445-3.52c0-1.32-0.52-2.586-1.445-3.52s-2.18-1.458-3.488-1.458c-1.308 0-2.563 0.524-3.488 1.458s-1.445 2.2-1.445 3.52c0 1.32 0.52 2.586 1.445 3.52s2.18 1.458 3.488 1.458zM34.267 8.533c0 0.981-0.191 1.951-0.563 2.857s-0.917 1.729-1.604 2.422c-0.687 0.693-1.503 1.243-2.401 1.619s-1.86 0.568-2.832 0.568c-0.972 0-1.934-0.193-2.832-0.568s-1.714-0.925-2.401-1.619c-0.687-0.693-1.232-1.516-1.604-2.422s-0.563-1.877-0.563-2.857c0-1.98 0.78-3.879 2.168-5.28s3.27-2.187 5.232-2.187c1.963 0 3.845 0.787 5.233 2.187s2.167 3.299 2.167 5.28zM16.842 19.186c-0.987-0.314-2.004-0.52-3.034-0.615-0.579-0.056-1.16-0.083-1.741-0.082-9.867 0-12.333 7.467-12.333 9.956 0 1.66 0.821 2.489 2.467 2.489h10.399c-0.366-0.777-0.548-1.629-0.533-2.489 0-2.514 0.93-5.082 2.689-7.228 0.599-0.732 1.297-1.416 2.087-2.031zM11.869 20.978c-4.114 0.050-6.45 1.593-7.795 3.176-1.473 1.727-1.875 3.641-1.875 4.291h7.4c0-2.601 0.797-5.192 2.269-7.467zM3.433 9.778c0-1.98 0.78-3.879 2.167-5.28s3.27-2.187 5.233-2.187c1.963 0 3.845 0.787 5.233 2.187s2.167 3.299 2.167 5.28-0.78 3.879-2.167 5.28c-1.388 1.4-3.27 2.187-5.233 2.187s-3.845-0.787-5.233-2.187c-1.388-1.4-2.167-3.299-2.167-5.28zM10.833 4.8c-1.308 0-2.563 0.524-3.488 1.458s-1.445 2.2-1.445 3.52c0 1.32 0.52 2.586 1.445 3.52s2.18 1.458 3.488 1.458c1.308 0 2.563-0.524 3.488-1.458s1.445-2.2 1.445-3.52c0-1.32-0.52-2.586-1.445-3.52s-2.18-1.458-3.488-1.458z"></path>
</symbol>
<symbol id="icon-burger" viewBox="0 0 55 32">
<path fill="#737373" style="fill: var(--color1, #737373)" d="M1.306 0h52.245v5.224h-52.245v-5.224zM14.367 13.061h39.184v5.224h-39.184v-5.224zM30.694 26.122h22.857v5.224h-22.857v-5.224z"></path>
</symbol>
<symbol id="icon-basket" viewBox="0 0 43 32">
<path fill="#737373" style="fill: var(--color1, #737373)" d="M39.822 7.111h-31.545l-1.166-5.973c-0.066-0.326-0.245-0.619-0.505-0.826s-0.584-0.318-0.917-0.311h-5.689v2.844h4.523l5.433 27.307c0.066 0.326 0.245 0.619 0.505 0.826s0.584 0.318 0.917 0.311h25.6v-2.844h-24.434l-1.166-5.689h25.6c0.329 0.008 0.65-0.098 0.91-0.3s0.441-0.488 0.513-0.809l2.844-12.8c0.048-0.211 0.047-0.43-0.003-0.641s-0.147-0.407-0.284-0.574c-0.137-0.167-0.311-0.301-0.507-0.391s-0.411-0.134-0.628-0.129zM35.84 19.911h-25.003l-1.991-9.956h29.198l-2.204 9.956z"></path>
</symbol>
<symbol id="icon-search" viewBox="0 0 32 32">
<path fill="#737373" style="fill: var(--color1, #737373)" d="M22.92 20.637l8.608 8.608c0.303 0.303 0.472 0.713 0.472 1.141s-0.17 0.838-0.473 1.141c-0.303 0.303-0.713 0.472-1.141 0.472s-0.838-0.17-1.141-0.473l-8.608-8.607c-2.573 1.993-5.809 2.931-9.049 2.623s-6.241-1.839-8.393-4.281c-2.151-2.442-3.292-5.612-3.189-8.865s1.441-6.345 3.742-8.646 5.393-3.64 8.646-3.742c3.253-0.103 6.423 1.038 8.865 3.189s3.973 5.153 4.281 8.393c0.308 3.24-0.63 6.476-2.623 9.049h0.002zM12.801 22.399c2.546 0 4.988-1.011 6.788-2.812s2.812-4.242 2.812-6.788c0-2.546-1.011-4.988-2.812-6.788s-4.242-2.812-6.788-2.812c-2.546 0-4.988 1.011-6.788 2.812s-2.812 4.242-2.812 6.788c0 2.546 1.011 4.988 2.812 6.788s4.242 2.812 6.788 2.812v0z"></path>
</symbol>
</defs>
</svg>
